<svg xmlns="http://www.w3.org/2000/svg" viewBox="0 0 512 512" role="img" aria-label="Divergify rainbow brain icon">
  <defs>
    <linearGradient id="dgf-rainbow" x1="0" y1="0" x2="512" y2="512" gradientUnits="userSpaceOnUse">
      <stop offset="0%" stop-color="#FF004D"/>
      <stop offset="16.6%" stop-color="#FF7A00"/>
      <stop offset="33.3%" stop-color="#FFDA00"/>
      <stop offset="50%" stop-color="#00C853"/>
      <stop offset="66.6%" stop-color="#00B2FF"/>
      <stop offset="83.3%" stop-color="#6A00FF"/>
      <stop offset="100%" stop-color="#B500B5"/>
    </linearGradient>
  </defs>

  <g id="brain" fill="none" stroke="url(#dgf-rainbow)" stroke-width="20" stroke-linecap="round" stroke-linejoin="round" shape-rendering="geometricPrecision">
    <!-- Outer silhouette -->
    <path vector-effect="non-scaling-stroke"
          d="M256 64
             C 330 64 420 110 420 200
             C 420 270 380 310 340 340
             C 310 362 290 380 256 416
             C 222 380 202 362 172 340
             C 132 310 92 270 92 200
             C 92 110 182 64 256 64 Z"/>

    <!-- Gyri lines (stylized) -->
    <path vector-effect="non-scaling-stroke"
          d="M330 150
             C 360 160 372 190 360 220
             C 350 245 325 260 300 260"/>

    <path vector-effect="non-scaling-stroke"
          d="M182 150
             C 150 160 140 190 152 220
             C 166 248 196 260 220 260"/>

    <path vector-effect="non-scaling-stroke"
          d="M210 300 C 230 320 282 320 302 300"/>

    <path vector-effect="non-scaling-stroke"
          d="M180 240 C 180 210 220 200 250 210"/>

    <path vector-effect="non-scaling-stroke"
          d="M262 180 C 290 172 320 180 332 200"/>
  </g>
</svg>

